<svg width="46" height="61" viewBox="0 0 46 61" fill="none" xmlns="http://www.w3.org/2000/svg">
<path d="M9.23358 0H0V9.98666H9.23358V0Z" transform="translate(18.3831 45.3846)" fill="#FDCC9B"/>
<path d="M0 1.17637C0 1.17637 3.8841 3.56489 9.23358 3.01159V0H0V1.17637Z" transform="translate(18.3835 45.3843)" fill="#FCBC85"/>
<path d="M4.50543 9.92781C6.99372 9.92781 9.01087 7.7054 9.01087 4.96391C9.01087 2.22242 6.99372 0 4.50543 0C2.01715 0 0 2.22242 0 4.96391C0 7.7054 2.01715 9.92781 4.50543 9.92781Z" transform="translate(0.563477 24.9349)" fill="#FCBC85"/>
<path d="M4.50543 9.92781C6.99372 9.92781 9.01087 7.7054 9.01087 4.96391C9.01087 2.22242 6.99372 0 4.50543 0C2.01715 0 0 2.22242 0 4.96391C0 7.7054 2.01715 9.92781 4.50543 9.92781Z" transform="translate(36.426 24.9349)" fill="#FCBC85"/>
<path d="M35.8443 12.6618C35.8443 5.35037 30.3041 0 17.9312 0C5.55834 0 0.0181932 5.35006 0.0181932 12.6618C0.0181932 19.9736 -1.27441 39.2338 17.9312 39.2338C37.1369 39.2338 35.8443 19.9736 35.8443 12.6618Z" transform="translate(5.06909 7.75568)" fill="#FDCC9B"/>
<path d="M1.93907 4.10181C3.00998 4.10181 3.87813 3.18359 3.87813 2.0509C3.87813 0.918221 3.00998 0 1.93907 0C0.868149 0 0 0.918221 0 2.0509C0 3.18359 0.868149 4.10181 1.93907 4.10181Z" transform="translate(12.3359 26.6592)" fill="#3B2519"/>
<path d="M0.579867 1.11994C0.900119 1.11994 1.15973 0.869235 1.15973 0.559972C1.15973 0.250708 0.900119 0 0.579867 0C0.259615 0 0 0.250708 0 0.559972C0 0.869235 0.259615 1.11994 0.579867 1.11994Z" transform="translate(12.8501 27.2445)" fill="white"/>
<path d="M0.189202 2.45192C1.10612 2.8948 2.5784 0.947341 5.94861 2.64151C6.56303 2.95032 6.92961 0 3.31722 0C0.189202 0 -0.364907 2.18468 0.189202 2.45192Z" transform="translate(10.9839 21.1757)" fill="#51362A"/>
<path d="M1.93907 4.10181C3.00999 4.10181 3.87814 3.18359 3.87814 2.0509C3.87814 0.918221 3.00999 0 1.93907 0C0.868151 0 0 0.918221 0 2.0509C0 3.18359 0.868151 4.10181 1.93907 4.10181Z" transform="translate(30.0254 26.6592)" fill="#3B2519"/>
<path d="M0.579867 1.11994C0.900119 1.11994 1.15973 0.869235 1.15973 0.559972C1.15973 0.250708 0.900119 0 0.579867 0C0.259615 0 0 0.250708 0 0.559972C0 0.869235 0.259615 1.11994 0.579867 1.11994Z" transform="translate(30.5391 27.2445)" fill="white"/>
<path d="M6.1536 2.45192C5.23669 2.8948 3.7644 0.947341 0.394201 2.64151C-0.220219 2.95032 -0.586799 0 3.0259 0C6.1536 0 6.7074 2.18468 6.1536 2.45192Z" transform="translate(28.6733 21.1757)" fill="#51362A"/>
<path d="M3.07022 0.89622C1.15408 0.89622 0 -0.48581 0 0.182758C0 0.851629 0.55411 2.12233 3.07022 2.12233C5.58632 2.12233 6.14043 0.851629 6.14043 0.182758C6.14043 -0.486113 4.98604 0.89622 3.07022 0.89622Z" transform="translate(19.9302 35.0278)" fill="#FCBC85"/>
<path d="M1.06204 0.309885C0.399249 0.309885 0 -0.168185 0 0.063266C0 0.294717 0.191615 0.733957 1.06204 0.733957C1.93247 0.733957 2.12377 0.294717 2.12377 0.063266C2.12377 -0.168185 1.72452 0.309885 1.06204 0.309885Z" transform="translate(21.9382 41.7627)" fill="#FCBC85"/>
<path d="M4.86667 0.94069C1.82975 0.94069 0 -0.25357 0 0.0491663C0 0.351903 0.878283 1.54283 4.86667 1.54283C8.85507 1.54283 9.73335 0.351903 9.73335 0.0491663C9.73303 -0.25357 7.90359 0.94069 4.86667 0.94069Z" transform="translate(18.1333 39.4281)" fill="#F7945E"/>
<path d="M22.4367 0V11.2352H0C0 6.6875 11.8182 0 22.4367 0Z" transform="translate(0.563477 49.397)" fill="#F7941E"/>
<path d="M0 0V11.2352H22.4367C22.4367 6.6875 10.6185 0 0 0Z" transform="translate(23.0002 49.397)" fill="#F7941E"/>
<path d="M6.81297 0C4.55444 0 2.24188 0.30486 0 0.825094C0.0150778 0.844204 2.48658 3.92344 6.81297 3.92344C10.8193 3.92344 13.4827 1.28648 13.8687 0.88091C11.5512 0.325489 9.15317 0 6.81297 0Z" transform="translate(16.1873 49.397)" fill="#F36C21"/>
<path d="M0 0.748381C0 0.748381 1.3504 2.36581 4.61663 2.36581C7.88286 2.36581 9.23358 0.748381 9.23358 0.748381C9.23358 0.748381 4.44387 -0.935476 0 0.748381Z" transform="translate(18.3831 49.0376)" fill="#FDCC9B"/>
<path d="M34.9724 5.77573C34.9724 5.77573 28.3244 -2.38298 14.5068 0.693218C0.68962 3.76912 -0.345724 11.7944 0.0698581 19.6021C0.48544 27.4102 1.59334 31.9906 2.90386 31.4246C4.21437 30.8583 3.53241 25.7045 3.67094 24.5151C3.80947 23.3256 5.0559 17.9468 13.4596 18.7494C21.8629 19.5521 28.9445 16.6093 28.9445 16.6093C28.9445 16.6093 31.7951 20.089 33.671 20.7557C37.4198 22.0877 36.1903 30.9693 37.6591 30.9693C39.1279 30.9693 46.3298 10.4569 34.9724 5.77573Z" transform="translate(2.75488 0.420044)" fill="#51362A"/>
</svg>
