<svg width="52" height="45" viewBox="0 0 52 45" fill="none" xmlns="http://www.w3.org/2000/svg">
<path d="M27.8393 8.25862L27.0091 6.91034C24.3451 2.58363 19.6887 0 14.5531 0C6.52824 0 0 6.39582 0 14.2579C0 18.7443 2.20728 23.0234 5.90601 25.7039L6.47018 26.1122L7.16781 26.1878C7.62625 26.2371 8.06303 26.3262 8.46514 26.4536L12.7722 27.8095L11.799 23.4811C11.5676 22.4503 11.8242 21.3975 12.5036 20.5892C13.1648 19.803 14.1406 19.3522 15.1823 19.3522C15.5394 19.3522 15.8912 19.4057 16.2023 19.5025L18.5335 20.2641L19.4409 18.026C19.8612 16.9902 20.7685 16.2201 21.8665 15.9671C22.2565 15.8779 22.6751 15.8584 23.0763 15.9068L26.1095 16.2651L25.9847 13.2739L25.9665 12.9844C25.9665 11.7864 26.3158 10.6113 26.9779 9.58906L27.8393 8.25862Z" transform="translate(3.45801)" fill="#F0C419"/>
<path d="M50.2455 13.6483H50.1753C50.2056 13.9064 50.2264 14.1671 50.2264 14.4337C50.2264 14.9032 49.839 15.2827 49.3598 15.2827C48.8806 15.2827 48.4932 14.9032 48.4932 14.4337C48.4932 11.6242 46.1611 9.33945 43.2935 9.33945C40.4258 9.33945 38.0937 11.6242 38.0937 14.4337C38.0937 14.9032 37.7064 15.2827 37.2271 15.2827C36.7479 15.2827 36.3605 14.9032 36.3605 14.4337C36.3605 10.9832 39.0028 8.13126 42.4078 7.70335C42.2119 3.42503 38.6085 0 34.194 0C29.7647 0 26.1509 3.4471 25.9775 7.7458C26.696 7.91221 27.3919 8.1873 28.0384 8.57871C29.6121 9.53388 30.7127 11.0324 31.1374 12.7984C31.2466 13.2552 30.958 13.712 30.4926 13.8198C30.0264 13.9226 29.5601 13.6441 29.4501 13.1881C28.7932 10.4525 25.9845 8.75106 23.1983 9.39548C20.4069 10.0391 18.6702 12.7866 19.3271 15.5213C19.4363 15.9772 19.1477 16.434 18.6815 16.5419C18.6156 16.5571 18.5489 16.5639 18.483 16.5639C18.0904 16.5639 17.7343 16.2999 17.6398 15.9093C17.385 14.8472 17.4075 13.785 17.6502 12.7899C15.8667 12.5344 14.065 13.1941 12.8899 14.5916C11.7996 15.8898 11.4816 17.5616 11.8716 19.0788C11.8724 19.089 11.8776 19.0975 11.8785 19.1077C12.1437 20.1146 12.7191 21.052 13.5987 21.7626C13.9679 22.0615 14.0208 22.5955 13.7175 22.9581C13.5459 23.1618 13.298 23.2671 13.0476 23.2671C12.8535 23.2671 12.6593 23.2043 12.4973 23.0735C11.4426 22.2228 10.6878 21.1114 10.2909 19.8633C6.78712 18.9684 3.10312 20.4126 1.20003 23.4819C0.0586879 25.3226 -0.283627 27.4894 0.238078 29.5823C0.759783 31.676 2.08138 33.4446 3.96107 34.5636C4.37012 34.8073 4.50011 35.3286 4.25139 35.7302C4.08847 35.9934 3.80248 36.1377 3.51043 36.1377C3.39517 36.1377 3.28078 36.1072 3.17072 36.0605C4.53998 36.8552 6.11636 37.3417 7.80193 37.413L14.916 37.4155C19.5152 37.3434 23.4548 34.5627 25.1343 30.63C26.8355 34.6145 30.8566 37.4223 35.5337 37.4223C43.6574 37.4223 50.2663 30.9475 50.2663 22.9886V14.4982L50.2455 13.6483Z" transform="translate(1.73193 5.03141)" fill="#D0E8F9"/>
<path d="M45.8739 9.39548C45.6737 4.18322 41.2947 0 35.9268 0C30.604 0 26.2553 4.11275 25.9867 9.26303C25.5031 9.27322 25.0169 9.32926 24.5342 9.44048C22.5098 9.90745 20.9074 11.2082 20.0027 12.8808C17.5051 12.3841 14.9347 13.2484 13.2864 15.2089C12.2022 16.4994 11.658 18.1024 11.7178 19.7589C7.70535 19.0508 3.62357 20.7981 1.45356 24.2961C0.0704348 26.5249 -0.342943 29.1476 0.287956 31.6811C0.918855 34.2146 2.5195 36.3559 4.79438 37.711C4.93477 37.795 5.09076 37.8349 5.24415 37.8349C5.53707 37.8349 5.82219 37.6898 5.98511 37.4274C6.23383 37.0258 6.10384 36.5045 5.69479 36.2608C3.8151 35.1418 2.4935 33.3732 1.9718 31.2795C1.45009 29.1866 1.79241 27.0199 2.93375 25.1791C4.83684 22.1107 8.52084 20.6665 12.0246 21.5605C12.4215 22.8095 13.1772 23.92 14.231 24.7708C14.3931 24.9007 14.5872 24.9643 14.7813 24.9643C15.0318 24.9643 15.2796 24.8591 15.4512 24.6553C15.7554 24.2927 15.7016 23.7579 15.3325 23.4598C14.452 22.75 13.8774 21.8119 13.6122 20.8049C13.6114 20.7947 13.6062 20.7862 13.6053 20.776C13.2153 19.2588 13.5334 17.587 14.6236 16.2888C15.7987 14.8913 17.6004 14.2316 19.3839 14.4872C19.1413 15.4831 19.1179 16.5444 19.3735 17.6066C19.4671 17.998 19.8242 18.2612 20.2167 18.2612C20.2826 18.2612 20.3493 18.2535 20.4152 18.2391C20.8814 18.1313 21.17 17.6745 21.0608 17.2185C20.4039 14.4838 22.1406 11.7363 24.932 11.0927C27.7182 10.4483 30.5269 12.1498 31.1838 14.8854C31.2939 15.3413 31.7601 15.6198 32.2263 15.5171C32.6917 15.4092 32.9803 14.9525 32.8711 14.4957C32.4465 12.7297 31.3459 11.2311 29.7721 10.2759C29.1256 9.88368 28.4297 9.60944 27.7113 9.44303C27.8846 5.14434 31.4984 1.69723 35.9277 1.69723C40.3422 1.69723 43.9465 5.12141 44.1415 9.40058C40.7365 9.82849 38.0942 12.6804 38.0942 16.1309C38.0942 16.6004 38.4816 16.98 38.9608 16.98C39.4401 16.98 39.8275 16.6004 39.8275 16.1309C39.8275 13.3214 42.1595 11.0367 45.0272 11.0367C47.8948 11.0367 50.2668 13.3214 50.2668 16.1309C50.2668 16.1547 50.2668 17.2576 50.2668 18.678C50.2668 19.1467 50.655 19.5271 51.1334 19.5271C51.6118 19.5271 52 19.1467 52 18.678V16.1309C51.9983 12.6677 49.297 9.80642 45.8739 9.39548Z" transform="translate(0 3.39702)" fill="#ABCADD"/>
<path d="M0.866619 6.79232C1.34499 6.79232 1.73324 6.41195 1.73324 5.94328C1.73324 4.71897 1.73324 5.51876 1.73324 5.51876C1.73324 3.41229 3.48294 1.69808 5.63303 1.69808C7.78311 1.69808 9.53281 3.41229 9.53281 5.51876C9.53281 5.98828 9.92106 6.3678 10.3994 6.3678C10.8778 6.3678 11.2661 5.98828 11.2661 5.51876C11.2661 2.4758 8.73899 0 5.63303 0C2.67352 0 0.222721 2.24911 0 5.09424V5.94328C0 6.41195 0.388245 6.79232 0.866619 6.79232Z" transform="translate(40.7322 23.774)" fill="#ABCADD"/>
<path d="M2.85399 0.248981L0.254136 2.7961C-0.0847121 3.12808 -0.0847121 3.66467 0.254136 3.99665C0.423127 4.16221 0.644982 4.24542 0.866837 4.24542C1.08869 4.24542 1.31054 4.16221 1.47954 3.99665L4.07939 1.44953C4.41824 1.11755 4.41824 0.580956 4.07939 0.248981C3.74055 -0.0829937 3.19284 -0.0829937 2.85399 0.248981Z" transform="translate(22.5327 35.6603)" fill="#ABC5D3"/>
<path d="M2.85399 0.248981L0.254136 2.7961C-0.0847121 3.12808 -0.0847121 3.66467 0.254136 3.99665C0.423127 4.16221 0.644982 4.24542 0.866837 4.24542C1.08869 4.24542 1.31054 4.16221 1.47954 3.99665L4.07939 1.44953C4.41824 1.11755 4.41824 0.580956 4.07939 0.248981C3.74055 -0.0829937 3.19284 -0.0829937 2.85399 0.248981Z" transform="translate(17.333 40.7546)" fill="#ABC5D3"/>
<path d="M4.07939 0.248981C3.74054 -0.0829937 3.19284 -0.0829937 2.85399 0.248981L0.254136 2.7961C-0.084712 3.12808 -0.084712 3.66467 0.254136 3.99665C0.423127 4.16221 0.644979 4.24542 0.866833 4.24542C1.08869 4.24542 1.31054 4.16221 1.47953 3.99665L4.07939 1.44953C4.41824 1.11755 4.41824 0.580107 4.07939 0.248981Z" transform="translate(34.6655 30.5661)" fill="#ABC5D3"/>
<path d="M2.85399 0.248981L0.254136 2.7961C-0.084712 3.12808 -0.084712 3.66467 0.254136 3.99665C0.423127 4.16221 0.644979 4.24542 0.866833 4.24542C1.08869 4.24542 1.31054 4.16221 1.47953 3.99665L4.07939 1.44953C4.41824 1.11755 4.41824 0.580956 4.07939 0.248981C3.74054 -0.0829937 3.19284 -0.0829937 2.85399 0.248981Z" transform="translate(29.4658 35.6603)" fill="#ABC5D3"/>
<path d="M4.07939 0.248981C3.74055 -0.0829937 3.19284 -0.0829937 2.85399 0.248981L0.254136 2.7961C-0.0847121 3.12808 -0.0847121 3.66467 0.254136 3.99665C0.423127 4.16221 0.644982 4.24542 0.866837 4.24542C1.08869 4.24542 1.31054 4.16221 1.47954 3.99665L4.07939 1.44953C4.41824 1.11755 4.41824 0.580107 4.07939 0.248981Z" transform="translate(20.7996 30.5661)" fill="#ABC5D3"/>
<path d="M4.07939 0.248981C3.74054 -0.0829937 3.19284 -0.0829937 2.85399 0.248981L0.254136 2.7961C-0.084712 3.12808 -0.084712 3.66467 0.254136 3.99665C0.423127 4.16221 0.644979 4.24542 0.866833 4.24542C1.08869 4.24542 1.31054 4.16221 1.47953 3.99665L4.07939 1.44953C4.41824 1.11755 4.41824 0.580107 4.07939 0.248981Z" transform="translate(27.7324 30.5661)" fill="#ABC5D3"/>
<path d="M4.07939 0.248981C3.74055 -0.0829937 3.19284 -0.0829937 2.85399 0.248981L0.254136 2.7961C-0.0847121 3.12808 -0.0847121 3.66467 0.254136 3.99665C0.423127 4.16221 0.644982 4.24542 0.866837 4.24542C1.08869 4.24542 1.31054 4.16221 1.47954 3.99665L4.07939 1.44953C4.41824 1.11755 4.41824 0.580107 4.07939 0.248981Z" transform="translate(15.5999 35.6603)" fill="#ABC5D3"/>
</svg>
