<svg width="53" height="60" viewBox="0 0 53 60" fill="none" xmlns="http://www.w3.org/2000/svg">
<path d="M25.7618 0.157725V45.9251C25.7618 45.9251 0 48.6173 0 35.9521C0 35.9521 6.91964 36.8316 5.50293 31.0113C3.707 23.6327 4.71161 11.6825 5.50293 5.15111C6.29424 -1.38059 25.7618 0.157725 25.7618 0.157725Z" transform="translate(0.659912 12.804)" fill="#330C00"/>
<path d="M0 0.157725V45.9251C0 45.9251 25.7618 48.6173 25.7618 35.9521C25.7618 35.9521 18.8422 36.8316 20.2589 31.0113C22.0548 23.6327 21.0502 11.6825 20.2589 5.15111C19.4673 -1.38059 0 0.157725 0 0.157725Z" transform="translate(26.3384 12.804)" fill="#330C00"/>
<path d="M0 6.67051V0.00265537C0 0.00265537 10.4948 -0.317994 10.4948 6.08785L0 6.67051Z" transform="translate(26.8713 45.252)" fill="#00B497"/>
<path d="M10.4948 6.67051V0.00265537C10.4948 0.00265537 0 -0.317994 0 6.08785L10.4948 6.67051Z" transform="translate(15.4773 45.252)" fill="#00B497"/>
<path d="M8.33721 0H0V9.41726H8.33721V0Z" transform="translate(22.2534 45.2545)" fill="#FDCC9B"/>
<path d="M0 1.10926C0 1.10926 3.50676 3.36153 8.33721 2.84008V0H0V1.10926Z" transform="translate(22.2534 45.2545)" fill="#FCBC85"/>
<path d="M4.06806 9.36148C6.31479 9.36148 8.13612 7.26585 8.13612 4.68074C8.13612 2.09564 6.31479 0 4.06806 0C1.82133 0 0 2.09564 0 4.68074C0 7.26585 1.82133 9.36148 4.06806 9.36148Z" transform="translate(6.16309 25.9714)" fill="#FCBC85"/>
<path d="M4.06805 9.36148C6.31478 9.36148 8.13611 7.26585 8.13611 4.68074C8.13611 2.09564 6.31478 0 4.06805 0C1.82133 0 0 2.09564 0 4.68074C0 7.26585 1.82133 9.36148 4.06805 9.36148Z" transform="translate(38.5442 25.9714)" fill="#FCBC85"/>
<path d="M32.3643 11.9393C32.3643 5.04458 27.362 0 16.1905 0C5.01847 0 0.0164271 5.04487 0.0164271 11.9393C0.0164271 18.834 -1.1507 36.9954 16.1905 36.9954C33.5317 36.9954 32.3643 18.8342 32.3643 11.9393Z" transform="translate(10.2312 9.77252)" fill="#FDCC9B"/>
<path d="M1.75083 3.86782C2.71778 3.86782 3.50166 3.00198 3.50166 1.93391C3.50166 0.865841 2.71778 0 1.75083 0C0.783871 0 0 0.865841 0 1.93391C0 3.00198 0.783871 3.86782 1.75083 3.86782Z" transform="translate(16.7932 27.5975)" fill="#3B2519"/>
<path d="M0.523575 1.05606C0.812738 1.05606 1.04715 0.81965 1.04715 0.528028C1.04715 0.236406 0.812738 0 0.523575 0C0.234413 0 0 0.236406 0 0.528028C0 0.81965 0.234413 1.05606 0.523575 1.05606Z" transform="translate(17.2568 28.1497)" fill="white"/>
<path d="M0.170835 1.77058C0.998742 2.09009 2.3281 0.683919 5.37142 1.90731C5.92591 2.13042 6.25718 0 2.99519 0C0.170835 0 -0.329482 1.57722 0.170835 1.77058Z" transform="translate(15.5723 23.5912)" fill="#684B37"/>
<path d="M1.75083 3.86782C2.71778 3.86782 3.50166 3.00198 3.50166 1.93391C3.50166 0.865841 2.71778 0 1.75083 0C0.783871 0 0 0.865841 0 1.93391C0 3.00198 0.783871 3.86782 1.75083 3.86782Z" transform="translate(32.7654 27.5975)" fill="#3B2519"/>
<path d="M0.523859 1.05663C0.813178 1.05663 1.04772 0.820094 1.04772 0.528314C1.04772 0.236534 0.813178 0 0.523859 0C0.23454 0 0 0.236534 0 0.528314C0 0.820094 0.23454 1.05663 0.523859 1.05663Z" transform="translate(33.2292 28.1492)" fill="white"/>
<path d="M5.5561 1.77058C4.72819 2.09009 3.39912 0.683919 0.355808 1.90731C-0.198683 2.13042 -0.529961 0 2.73203 0C5.5561 0 6.05642 1.57722 5.5561 1.77058Z" transform="translate(31.5442 23.5912)" fill="#684B37"/>
<path d="M2.77217 0.845096C1.04205 0.845096 0 -0.458383 0 0.172333C0 0.802763 0.500318 2.00127 2.77217 2.00127C5.04402 2.00127 5.54405 0.803049 5.54405 0.172333C5.54405 -0.458383 4.50201 0.845096 2.77217 0.845096Z" transform="translate(23.6497 35.4887)" fill="#FCBC85"/>
<path d="M0.958943 0.292208C0.360491 0.292208 0 -0.158591 0 0.059657C0 0.277905 0.173014 0.692377 0.958943 0.692377C1.74487 0.692377 1.9176 0.277905 1.9176 0.059657C1.9176 -0.158591 1.55711 0.292208 0.958943 0.292208Z" transform="translate(25.4629 41.8396)" fill="#FCBC85"/>
<path d="M4.39423 0.887307C1.65184 0.887307 0 -0.239115 0 0.0463515C0 0.331532 0.793022 1.45481 4.39423 1.45481C7.99544 1.45481 8.78846 0.331532 8.78846 0.0463515C8.78846 -0.238829 7.13633 0.887307 4.39423 0.887307Z" transform="translate(22.0276 39.6377)" fill="#F7945E"/>
<path d="M2.37594 4.7923C3.68814 4.7923 4.75188 3.71951 4.75188 2.39615C4.75188 1.07279 3.68814 0 2.37594 0C1.06375 0 0 1.07279 0 2.39615C0 3.71951 1.06375 4.7923 2.37594 4.7923Z" transform="translate(13.9163 33.3154)" fill="#F9AA8D"/>
<path d="M2.37594 4.7923C3.68814 4.7923 4.75188 3.71951 4.75188 2.39615C4.75188 1.07279 3.68814 0 2.37594 0C1.06374 0 0 1.07279 0 2.39615C0 3.71951 1.06374 4.7923 2.37594 4.7923Z" transform="translate(34.4673 33.3154)" fill="#F9AA8D"/>
<path d="M18.2579 0V10.5943H0C0 6.3063 8.67019 0 18.2579 0Z" transform="translate(8.16382 49.038)" fill="#8FD6E7"/>
<path d="M0 0V10.5943H18.2576C18.2576 6.3063 9.58772 0 0 0Z" transform="translate(26.4216 49.038)" fill="#8FD6E7"/>
<path d="M7.62219 10.1146V0C4.95127 0 2.36063 0.501142 0 1.29976L7.62219 10.1146Z" transform="translate(18.7998 49.038)" fill="#F6B1CF"/>
<path d="M0 10.1146V0C2.67063 0 5.26127 0.501142 7.62218 1.29976L0 10.1146Z" transform="translate(26.4216 49.038)" fill="#F6B1CF"/>
<path d="M5.64417 0C3.70161 0 1.80245 0.268592 0 0.717101C0.256682 2.2906 1.31036 5.51884 5.64417 5.51884C9.97771 5.51884 11.0314 2.2906 11.2881 0.717101C9.4859 0.268306 7.58673 0 5.64417 0Z" transform="translate(20.7773 49.038)" fill="#F283B4"/>
<path d="M0 0.705817C0 0.705817 -0.000284012 4.49269 4.16846 4.49269C8.33692 4.49269 8.33692 0.705817 8.33692 0.705817C8.33692 0.705817 4.0119 -0.882272 0 0.705817Z" transform="translate(22.2534 48.6988)" fill="#FDCC9B"/>
<path d="M4.81509 0.346815C4.93989 -0.471542 -0.0403122 0.131714 0.000246401 2.44091C0.0413723 4.7501 5.50289 6.52669 7.00356 7.36764C8.50423 8.20831 11.172 10.1505 11.172 10.1505C11.172 10.1505 11.6723 8.19973 9.33781 6.69459C7.00384 5.19003 4.64832 1.44006 4.81509 0.346815Z" transform="translate(15.2271 49.4814)" fill="#3ABDAA"/>
<path d="M6.40196 0.346815C6.27717 -0.471542 11.2574 0.131714 11.2168 2.44091C11.1757 4.7501 5.71417 6.52669 4.2135 7.36764C2.71283 8.20831 0.0450361 10.1505 0.0450361 10.1505C0.0450361 10.1505 -0.455281 8.19973 1.87925 6.69459C4.21322 5.19003 6.56874 1.44006 6.40196 0.346815Z" transform="translate(26.3384 49.4814)" fill="#3ABDAA"/>
<path d="M21.2598 0C2.50102 0 0 16.5179 0 28.6906C0 40.8635 6.24858 47.9324 11.1304 49.9067C11.1304 49.9067 3.33488 35.9743 7.1698 23.0762C10.3076 12.5231 21.2598 15.6392 21.2598 15.6392C21.2598 15.6392 32.2115 12.5228 35.3495 23.0762C39.1845 35.9743 31.389 49.9067 31.389 49.9067C36.271 47.9324 42.5196 40.8635 42.5196 28.6906C42.5196 16.5179 40.0186 0 21.2598 0Z" transform="translate(5.16187 0.514893)" fill="#401900"/>
<path d="M23.5595 9.76709C23.5595 9.76709 16.5187 13.3266 10.301 12.612C4.08366 11.8972 1.69552 18.398 2.07501 22.7003L0 13.1249L3.75182 5.54916L14.444 0L24.547 0.47082L29.3384 4.66644L33.4067 9.76709L36.2665 13.1249L34.8906 23.4583L31.9784 26.9906C31.9786 26.9906 34.6135 13.7327 23.5595 9.76709Z" transform="translate(9.20557 9.30161)" fill="#401900"/>
</svg>
