<svg width="42" height="42" viewBox="0 0 42 42" fill="none" xmlns="http://www.w3.org/2000/svg">
<path d="M20.9963 42C32.5922 42 41.9925 32.598 41.9925 21C41.9925 9.40202 32.5922 0 20.9963 0C9.40035 0 0 9.40202 0 21C0 32.598 9.40035 42 20.9963 42Z" transform="translate(0.00830078)" fill="#393A59"/>
<path d="M13.3442 3.03601C13.3442 4.4083 12.2319 5.52173 10.8589 5.52173H0C1.14154 3.44147 2.6258 1.57543 4.37667 0C4.80257 0.34459 5.34504 0.550278 5.9355 0.550278H10.8589C11.5453 0.550278 12.1666 0.828001 12.6166 1.27802C13.0665 1.72796 13.3442 2.34937 13.3442 3.03601Z" transform="translate(2.58594 5.38733)" fill="#6A6577"/>
<path d="M2.34661 0.133836L2.81927 1.09172C2.85422 1.1626 2.92189 1.21175 2.99999 1.22307L4.05695 1.37666C4.25383 1.40529 4.33249 1.64725 4.18992 1.78615L3.42515 2.53178C3.36855 2.58691 3.34279 2.66641 3.35608 2.74427L3.53663 3.79708C3.57026 3.99317 3.36445 4.14274 3.18833 4.05019L2.24301 3.55316C2.17312 3.5164 2.08953 3.5164 2.01956 3.55316L1.07423 4.05019C0.898111 4.14274 0.692378 3.99317 0.725928 3.79708L0.90648 2.74427C0.919851 2.66633 0.894093 2.58691 0.837492 2.53178L0.0727187 1.78615C-0.0696867 1.64733 0.00889899 1.40521 0.205691 1.37666L1.26266 1.22307C1.34083 1.21167 1.40842 1.16252 1.44337 1.09172L1.91603 0.133836C2.00413 -0.0446122 2.25859 -0.0446122 2.34661 0.133836Z" transform="translate(31.8701 25.0891)" fill="#F9D368"/>
<path d="M2.34661 0.133836L2.81927 1.09172C2.85422 1.1626 2.92189 1.21175 2.99999 1.22307L4.05695 1.37666C4.25383 1.40529 4.3325 1.64725 4.18993 1.78615L3.42515 2.53178C3.36855 2.58691 3.34279 2.66641 3.35608 2.74427L3.53663 3.79708C3.57027 3.99317 3.36445 4.14274 3.18833 4.05019L2.24301 3.55316C2.17312 3.5164 2.08953 3.5164 2.01956 3.55316L1.07423 4.05019C0.898112 4.14274 0.692379 3.99317 0.72593 3.79708L0.90648 2.74427C0.919851 2.66633 0.894093 2.58691 0.837492 2.53178L0.0727187 1.78615C-0.0696867 1.64733 0.00889899 1.40521 0.205691 1.37666L1.26266 1.22307C1.34083 1.21167 1.40843 1.16252 1.44337 1.09172L1.91603 0.133836C2.00413 -0.0446122 2.25851 -0.0446122 2.34661 0.133836Z" transform="translate(12.4185 14.2842)" fill="#F9D368"/>
<path d="M19.0723 7.45718C19.0723 8.83029 17.9591 9.94291 16.587 9.94291H6.10178C4.72891 9.94291 3.61649 8.82947 3.61649 7.45718C3.61649 6.77063 3.338 6.14922 2.88806 5.6992C2.43902 5.25008 1.81682 4.97146 1.1312 4.97146H0C0.143964 3.24604 0.497927 1.5806 1.03441 0H10.7295C12.1016 0 13.2148 1.11253 13.2148 2.48573C13.2148 3.85802 14.3272 4.97146 15.7001 4.97146H16.5871C17.9591 4.97154 19.0723 6.08407 19.0723 7.45718Z" transform="translate(0.0830078 14.2466)" fill="#6A6577"/>
<path d="M19.4597 9.94291H8.99845C7.62558 9.94291 6.51316 8.82947 6.51316 7.45718C6.51316 6.77063 6.23466 6.14922 5.78473 5.6992C5.33569 5.25008 4.71349 4.97146 4.02787 4.97146H2.48529C1.11242 4.97146 0 3.85802 0 2.48573C0 1.79917 0.277674 1.17776 0.727613 0.727742C1.17755 0.278626 1.79885 0 2.48529 0H13.6261C14.9982 0 16.1114 1.11253 16.1114 2.48573C16.1114 3.822 17.1663 4.91312 18.4904 4.96891C19.0046 6.55206 19.3363 8.21922 19.4597 9.94291Z" transform="translate(22.4863 9.53748)" fill="#6A6577"/>
<path d="M29.5409 13.3885C26.6212 19.5589 19.2775 22.2131 13.0952 19.3537C6.86611 16.4727 4.14105 8.95968 7.07685 2.75533C7.38217 2.11005 7.73597 1.5034 8.13176 0.937454C8.50336 0.406129 7.88264 -0.249824 7.33475 0.0967357C4.8863 1.64583 2.8352 3.88789 1.51008 6.70549C-2.19919 14.5923 1.15726 23.9451 9.03402 27.6735C16.9058 31.3995 26.307 28.0375 30.0323 20.1644C31.3586 17.3614 31.7864 14.3645 31.4324 11.499C31.3532 10.8579 30.452 10.7983 30.2774 11.4204C30.0909 12.0851 29.8462 12.7434 29.5409 13.3885Z" transform="translate(0 1.8728)" fill="#F9D368"/>
<path d="M22.7489 12.4286C22.7489 13.8008 21.6365 14.9143 20.2636 14.9143H10.5615C5.31682 12.1148 1.40035 7.1528 0 1.21969C0.432794 0.4894 1.2289 0 2.13903 0H13.2799C13.9663 0 14.5868 0.277723 15.0367 0.727742C15.4867 1.17776 15.7652 1.79917 15.7652 2.48573C15.7652 3.85802 14.6519 4.97146 13.2799 4.97146H11.7373C10.3644 4.97146 9.25201 6.08399 9.25201 7.45718C9.25201 8.82947 10.3643 9.94291 11.7373 9.94291H20.2635C20.9499 9.94291 21.5712 10.2206 22.0212 10.6707C22.4711 11.1207 22.7489 11.742 22.7489 12.4286Z" transform="translate(0.568359 24.6234)" fill="#6A6577"/>
<path d="M2.34661 0.133775L2.81927 1.09165C2.85422 1.16254 2.92189 1.21169 2.99999 1.22301L4.05695 1.3766C4.25383 1.40523 4.3325 1.64718 4.18993 1.78609L3.42515 2.53172C3.36855 2.58685 3.34279 2.66635 3.35608 2.74421L3.53663 3.79702C3.57026 3.99311 3.36445 4.14268 3.18833 4.05013L2.24301 3.5531C2.17303 3.51634 2.08953 3.51634 2.01956 3.5531L1.07423 4.05013C0.898111 4.14268 0.692378 3.99311 0.725928 3.79702L0.90648 2.74421C0.919851 2.66627 0.894093 2.58685 0.837492 2.53172L0.0727187 1.78609C-0.0696867 1.64727 0.00889899 1.40515 0.205691 1.3766L1.26266 1.22301C1.34083 1.2116 1.40842 1.16246 1.44337 1.09165L1.91603 0.133775C2.00413 -0.0445916 2.25851 -0.0445916 2.34661 0.133775Z" transform="translate(20.9292 3.70886)" fill="#F9D368"/>
<path d="M14.6992 0C13.1558 4.58231 10.074 8.4574 6.06839 11.0109C5.62018 10.3654 4.87288 9.94291 4.02788 9.94291H2.48529C1.79886 9.94291 1.17755 9.66437 0.727615 9.21435C0.278579 8.76523 0 8.14292 0 7.45719C0 6.08407 1.11234 4.97146 2.48529 4.97146H4.02788C4.71431 4.97146 5.33479 4.69291 5.78473 4.24289C6.23467 3.79378 6.51316 3.17146 6.51316 2.48573C6.51316 1.11262 7.6255 0 8.99845 0H14.6992Z" transform="translate(26.2061 27.709)" fill="#6A6577"/>
</svg>
